<?xml version="1.0" encoding="UTF-8"?>
<svg viewBox="0 0 744.09448 1052.3622" xmlns="http://www.w3.org/2000/svg">
 <defs>
  <linearGradient id="a" x1="-218" x2="-24.362" y1="344.57" y2="78.049" gradientUnits="userSpaceOnUse">
   <stop stop-color="#2a7fff" offset="0"/>
   <stop stop-color="#2a7fff" stop-opacity="0" offset="1"/>
  </linearGradient>
 </defs>
 <g stroke="#000" stroke-width="3.2896">
  <g transform="matrix(-1.1552 0 0 1.1552 120.01 -56.722)">
   <path d="m-230.31 158.45c0 4.3582 16.561 238.83 16.561 238.83l267.59-5.2299 1.7433-251.9z" fill="url(#a)" stroke="none"/>
   <path d="m-148.14 127.02c4.6909 0.0262 9.2566 0.74574 13.58 2.1101 18.742 5.9141 11.664 43.163 30.136 54.483 14.116 3.3313 20.538-1.453 27.539-9.4413 34.56-45.154 153.09 176.64 104.4 209.49-96.637 65.198-235.18-76.403-241.39-155.12-5.4365-68.876 32.9-101.71 65.737-101.53zm70.742 73.555c-4.4843-0.14628-8.6205 1.394-11.308 4.626-5.3747 6.464-2.9815 17.301 5.3294 24.212s19.405 7.2756 24.78 0.81157 2.9815-17.301-5.3293-24.212c-4.1555-3.4552-8.9878-5.2912-13.472-5.4375z" stroke="none"/>
   <path d="m-148.14 120.1c4.6909 0.0262 9.2566 0.74575 13.58 2.1101 18.742 5.9141 11.664 43.163 30.136 54.483 14.116 3.3313 20.538-1.453 27.539-9.4413 34.56-45.154 153.09 176.64 104.4 209.49-96.637 65.198-235.18-76.403-241.39-155.12-5.4365-68.876 32.9-101.71 65.737-101.53zm70.742 73.555c-4.4843-0.14628-8.6205 1.394-11.308 4.626-5.3747 6.464-2.9815 17.301 5.3294 24.212s19.405 7.2756 24.78 0.81157 2.9816-17.301-5.3293-24.212c-4.1555-3.4552-8.9878-5.2912-13.472-5.4375z" fill="#fff" stroke="none"/>
   <path transform="matrix(-.86568 0 0 .86568 276.12 93.233)" d="m432.46 222.52-30.71 50.848s-64.441 15.607-54.876 102.2c65.952-30.71 69.979-96.158 69.979-96.158l40.276-29.703s168.15-203.9 158.59-209.94-183.25 182.75-183.25 182.75z" fill="#fff" stroke="none"/>
   <g transform="matrix(-.38564 0 0 .38564 -53.463 -22.826)" stroke="#000">
    <path d="m519.27 430.33c-114.47 141.17-236.57 348.45-343.31 422.71l-13.544-26.313c111.9-109.38 229.35-268.73 344.02-403.1 11.545-6.2454 17.369-5.8147 12.835 6.6988z" stroke-width="1.0572"/>
    <path d="m425 485.85c-104.82 108.89-251.35 241.14-296.32 316.51l-13.055-1.3858 2.0105-10.892c-7.8114-10.608 353.13-376.11 371.62-375.56 6.3653 0.18939-64.256 71.336-64.256 71.336z" stroke-width="1"/>
    <path d="m100.77 801.32c29.844 16.404 66.048 25.843 64.163 68.769l8.3874 0.12277 1.1576-9.1907c-2.8325-33.603-29.14-55.925-66.233-67.163z" stroke-width=".91999"/>
    <path d="m104.87 804.78-65.875 101.81s-61.819 12.464-101.49 85.584c-48.29 89.003-105.56 152.57-105.56 152.57 108.03-6.6453 190.01-51.88 232.81-116.37 42.984-64.767 18.554-100.64 18.554-100.64l82.998-58.247 3.422-13.261-12.844 5.6305-86.836 62.455s20.464 50.465-35.965 116.56-62.291 48.223-62.291 48.223l26.844-73.808-47.62 38.477 21.052-46.326-23.816 8.1511c30.546-51.203 53.211-86.611 108.54-94.7l56.452-109.44z" stroke-width="1"/>
   </g>
  </g>
 </g>
</svg>
