<?xml version="1.0" encoding="UTF-8"?>
<svg viewBox="0 0 127.99298 110.00286" xmlns="http://www.w3.org/2000/svg" xmlns:xlink="http://www.w3.org/1999/xlink">
 <defs>
  <filter id="b" x="-.25" y="-.25" width="1.5" height="1.5">
   <feGaussianBlur in="SourceAlpha" result="blur" stdDeviation="3"/>
   <feColorMatrix result="bluralpha" values="1 0 0 0 0 0 1 0 0 0 0 0 1 0 0 0 0 0 0.6 0"/>
   <feOffset dx="3" dy="3" in="bluralpha" result="offsetBlur"/>
   <feMerge>
    <feMergeNode in="offsetBlur"/>
    <feMergeNode in="SourceGraphic"/>
   </feMerge>
  </filter>
  <filter id="g" x="-.25" y="-.25" width="1.5" height="1.5">
   <feTurbulence baseFrequency="0.031541218637992828 0.16200716845878138"/>
   <feColorMatrix result="result91" values="2 0 0 0 0 0 0 0 0 0 0 0 0 0 0 0 0 0 0.5 0.5"/>
   <feDisplacementMap in="SourceGraphic" in2="result91" result="fbSourceGraphic" scale="21.5873" xChannelSelector="R"/>
   <feColorMatrix in="fbSourceGraphic" result="fbSourceGraphicAlpha" values="0 0 0 -1 0 0 0 0 -1 0 0 0 0 -1 0 0 0 0 1 0"/>
   <feGaussianBlur in="fbSourceGraphicAlpha" result="blur" stdDeviation="1"/>
   <feColorMatrix result="bluralpha" values="1 0 0 0 0 0 1 0 0 0 0 0 1 0 0 0 0 0 0.4 0"/>
   <feOffset dx="3" dy="3" in="bluralpha" result="offsetBlur"/>
   <feMerge>
    <feMergeNode in="offsetBlur"/>
    <feMergeNode in="fbSourceGraphic"/>
   </feMerge>
  </filter>
  <filter id="i" x="-.25" y="-.25" width="1.5" height="1.5">
   <feTurbulence baseFrequency="0.017204301075268821 0.1032258064516129"/>
   <feColorMatrix result="result91" values="2 0 0 0 0 0 0 0 0 0 0 0 0 0 0 0 0 0 0.5 0.5"/>
   <feDisplacementMap in="SourceGraphic" in2="result91" result="fbSourceGraphic" scale="15.873" xChannelSelector="R"/>
   <feColorMatrix in="fbSourceGraphic" result="fbSourceGraphicAlpha" values="0 0 0 -1 0 0 0 0 -1 0 0 0 0 -1 0 0 0 0 1 0"/>
   <feGaussianBlur in="fbSourceGraphicAlpha" result="blur" stdDeviation="1"/>
   <feColorMatrix result="bluralpha" values="1 0 0 0 0 0 1 0 0 0 0 0 1 0 0 0 0 0 0.4 0"/>
   <feOffset dx="3" dy="3" in="bluralpha" result="offsetBlur"/>
   <feMerge>
    <feMergeNode in="offsetBlur"/>
    <feMergeNode in="fbSourceGraphic"/>
   </feMerge>
  </filter>
  <filter id="j" x="-.25" y="-.25" width="1.5" height="1.5">
   <feTurbulence baseFrequency="0.04157706093189964 0.13476702508960575" seed="85"/>
   <feColorMatrix result="result91" values="2 0 0 0 0 0 0 0 0 0 0 0 0 0 0 0 0 0 0.5 0.5"/>
   <feDisplacementMap in="SourceGraphic" in2="result91" result="fbSourceGraphic" scale="16.8254" xChannelSelector="R"/>
   <feColorMatrix in="fbSourceGraphic" result="fbSourceGraphicAlpha" values="0 0 0 -1 0 0 0 0 -1 0 0 0 0 -1 0 0 0 0 1 0"/>
   <feGaussianBlur in="fbSourceGraphicAlpha" result="blur" stdDeviation="1"/>
   <feColorMatrix result="bluralpha" values="1 0 0 0 0 0 1 0 0 0 0 0 1 0 0 0 0 0 0.4 0"/>
   <feOffset dx="3" dy="3" in="bluralpha" result="offsetBlur"/>
   <feMerge>
    <feMergeNode in="offsetBlur"/>
    <feMergeNode in="fbSourceGraphic"/>
   </feMerge>
  </filter>
  <filter id="h" x="-.25" y="-.25" width="1.5" height="1.5">
   <feTurbulence baseFrequency="0.02548476454293629 0.1032258064516129"/>
   <feColorMatrix result="result91" values="2 0 0 0 0 0 0 0 0 0 0 0 0 0 0 0 0 0 0.5 0.5"/>
   <feDisplacementMap in="SourceGraphic" in2="result91" result="fbSourceGraphic" scale="15.873" xChannelSelector="R"/>
   <feColorMatrix in="fbSourceGraphic" result="fbSourceGraphicAlpha" values="0 0 0 -1 0 0 0 0 -1 0 0 0 0 -1 0 0 0 0 1 0"/>
   <feGaussianBlur in="fbSourceGraphicAlpha" result="blur" stdDeviation="1"/>
   <feColorMatrix result="bluralpha" values="1 0 0 0 0 0 1 0 0 0 0 0 1 0 0 0 0 0 0.4 0"/>
   <feOffset dx="3" dy="3" in="bluralpha" result="offsetBlur"/>
   <feMerge>
    <feMergeNode in="offsetBlur"/>
    <feMergeNode in="fbSourceGraphic"/>
   </feMerge>
  </filter>
  <linearGradient id="a">
   <stop stop-color="#b47b3b" offset="0"/>
   <stop stop-color="#e5d3b4" offset="1"/>
  </linearGradient>
  <linearGradient id="f" x1="174.85" x2="91.511" y1="406.34" y2="332.97" gradientUnits="userSpaceOnUse">
   <stop stop-color="#eac17f" offset="0"/>
   <stop stop-color="#f2dabb" offset="1"/>
  </linearGradient>
  <linearGradient id="e" x2="0" y1="292.26" y2="382.14" gradientUnits="userSpaceOnUse" xlink:href="#a"/>
  <linearGradient id="d" x1="4642.8" x2="4649.3" y1="454.22" y2="483.21" gradientUnits="userSpaceOnUse" xlink:href="#a"/>
  <linearGradient id="c" x1="4395.7" x2="4413.9" y1="261.78" y2="295.49" gradientUnits="userSpaceOnUse" xlink:href="#a"/>
 </defs>
 <g transform="translate(-73.143 -317.36)">
  <path transform="matrix(.15672 0 0 .16018 -588.74 344.55)" d="m4568 290.92c-25.272 25.273-25.272 66.254 0 91.526 4.4395 4.4395 9.3678 8.1025 14.606 10.982-1.8612-1.4894-3.6669-3.0922-5.3917-4.8171-25.273-25.273-25.273-66.254 0-91.526 20.831-20.831 52.317-24.469 76.898-10.96-25.408-20.314-62.572-18.746-86.112 4.795z" fill="url(#e)" filter="url(#b)" stroke="#815f37" stroke-width="6.3793"/>
  <path transform="matrix(.21504 0 0 .21972 -852.63 319.04)" d="m4874.4 243.76c-3.5098 37.42-17.104 73.928-39.538 104.17-23.944 33.45-57.842 58.561-94.567 76.56-68.208 33.523-147.34 45.907-222.23 31.764-24.967-4.8313-49.511-13.362-70.552-27.9-1.7764-0.53243 1.1976 2.5247 1.5839 3.0321 23.035 25.299 56.804 37.652 89.845 43.149 15.027 2.4664 30.224 3.4818 45.444 2.9364 20.657 0.26942 41.339-1.0718 61.601-5.2669 60.102-11.337 118.85-37.049 162.84-80.31 40.183-38.048 64.554-92.463 65.938-147.8-0.011-0.14394-0.1522-0.51839-0.362-0.33941z" fill="url(#d)" filter="url(#b)" stroke="#815f37" stroke-width="4.6499"/>
  <path transform="matrix(.21504 0 0 .21972 -852.63 319.04)" d="m4519.8 204.13c-27.81 2.0703-53.454 14.64-77.856 27.266-34.478 18.115-65.003 42.512-96.624 64.985-6.3427 5.4832-15.264 3.4951-22.152 0.4978-0.33 2.7254 7.6078 6.0418 10.266 6.7906 13.05 3.428 23.742-3.1339 34.573-9.4902 35.408-21.666 143.53-113.66 183.4-73.94-0.17-3.833-4.2802-6.7455-6.8561-9.3225-6.6544-5.7774-16.239-7.0144-24.754-6.7882z" fill="url(#c)" filter="url(#b)" stroke="#815f37" stroke-width="4.6499"/>
  <path d="m137.24 317.87c-0.82222-9e-3 -1.6488-2e-3 -2.4715 0.0198-0.71334 2e-3 -1.408-3e-3 -2.1211 0.0198-8.9059-2.1e-4 -17.786 2.077-25.96 5.6469-13.879 6.0599-26.123 17.454-30.961 32.33-2.6756 8.6283-2.8528 18.208-0.039 26.823 0.92122 2.5578 4.4277 3.5349 6.4412 1.6503 9.4004-7.2817 19.045-14.644 30.28-18.67 3.7643-1.1727 8.2918-2.5077 11.91-0.29825 2.3908 1.6199 3.2229 4.9831 1.7903 7.5557-2.5725 5.3475-7.2526 9.2149-11.267 13.421-4.5998 4.7214-10.042 8.9638-13.038 15.012-2.2012 4.2612-1.0946 10.007 2.8022 12.825 5.836 4.2313 13.087 5.8282 20.083 6.7603 16.985 1.7917 34.598-2.306 49.039-11.632 10.739-6.8385 19.003-17.968 21.445-30.76 2.2625-10.955 0.41326-22.812-5.5267-32.271-7.7489-13.099-21.107-21.899-35.379-25.868-5.535-1.6381-11.272-2.4978-17.028-2.565zm-2.9579 70.069c5.6012 0 10.139 4.6344 10.139 10.359s-4.5375 10.359-10.139 10.359-10.139-4.6344-10.139-10.359 4.5375-10.359 10.139-10.359z" fill="url(#f)" stroke="#815f37" stroke-width="1.0107"/>
  <path d="m135.92 319.27c-0.76288-9e-3 -1.5179 0.0112-2.2812 0.0312-0.66186 2e-3 -1.3071-0.0212-1.9688 0-1.7054-4e-5 -3.4272 0.0906-5.125 0.25v44.004c3.0337 4.0577 3.7566 8.1154 0 12.173v12.229c2.099-1.516 4.6817-2.4062 7.4688-2.4062 1.5864 0 3.0987 0.28352 4.5 0.8125v-67c-0.8593-0.0482-1.7328-0.0838-2.5938-0.0937zm5.75 0.34375v68.5c3.0864 2.3294 5.0938 6.0227 5.0938 10.188s-2.0073 7.8581-5.0938 10.188v10.094c4.0542-0.58299 8.0383-1.5112 11.938-2.7812v-93.562c-0.62882-0.19656-1.2418-0.41764-1.875-0.59375-3.2854-0.97236-6.6682-1.6535-10.062-2.0312zm-18.281 0.3125c-4.0637 0.61126-8.0677 1.6867-11.938 3.0938v41.156c0.47039-0.1834 0.96106-0.36049 1.4375-0.53125 3.3133-1.0322 7.2372-2.1954 10.5-0.5625zm33.344 3.375v91.406c4.167-1.5768 8.2033-3.5829 12-5.9375v-79.438c-3.7434-2.463-7.8166-4.4735-12-6.0312zm-48.438 0.96875c-0.23946 0.10127-0.48056 0.17722-0.71875 0.28125-3.9373 1.719-7.7182 3.9048-11.219 6.5v41.375c3.8184-2.5981 7.7613-4.9899 11.938-6.9062zm63.562 7.2812v74.594c6.68-3.8567 14.507-12.539 16.719-18.188 4.6033-10.922 5.5778-22.416 0.25-34.906-2.4504-6.2576-12.3-17.941-16.969-21.5zm-78.656 2c-4.9075 4.2277-9.0726 9.3627-11.969 15.188v32.969c1.1969 0.37368 2.5504 0.16801 3.5312-0.75 2.7637-2.1408 5.5886-4.2888 8.4375-6.3438zm30.188 46.438c-2.3916 3.2341-5.4893 5.9513-8.25 8.8438-1.1897 1.2212-2.4424 2.3958-3.6875 3.5938v23.438c3.7995 1.5489 7.8966 2.3642 11.938 2.9375v-13.438c-1.3519-2.0252-2.1562-4.4448-2.1562-7.0625s0.80436-5.0373 2.1562-7.0625zm-15.094 15.594c-4.9763 4.8186-6.8844 12.067-2.6562 15.969 0.85671 0.62115 1.7399 1.8065 2.6562 2.3125zm18.25 13.062v10.469c3.9711 0.28507 8.0015 0.23491 11.969-0.15625v-8.7188c-1.4013 0.52898-2.9136 0.84375-4.5 0.84375-2.787 0-5.3698-0.92151-7.4688-2.4375z" fill="#f5dbb2"/>
  <path transform="matrix(.21504 0 0 .21972 -865.34 340.97)" d="m4510.6 49.417a46.956 34.527 0 1 1 -93.913 0 46.956 34.527 0 1 1 93.913 0z" fill="#ff1027" filter="url(#g)" stroke="#af1f2e" stroke-width="9.2997"/>
  <path transform="matrix(.21504 0 0 .21972 -810.32 324.64)" d="m4510.6 49.417a46.956 34.527 0 1 1 -93.913 0 46.956 34.527 0 1 1 93.913 0z" fill="#eff504" filter="url(#i)" stroke="#b39104" stroke-width="9.2997"/>
  <path transform="matrix(.21504 0 0 .21972 -786.08 340.16)" d="m4510.6 49.417a46.956 34.527 0 1 1 -93.913 0 46.956 34.527 0 1 1 93.913 0z" fill="#00cb19" filter="url(#j)" stroke="#008319" stroke-width="9.2997"/>
  <path transform="matrix(.21504 0 0 .21972 -841.48 325.36)" d="m4510.6 49.417a46.956 34.527 0 1 1 -93.913 0 46.956 34.527 0 1 1 93.913 0z" fill="#0830ff" filter="url(#h)" stroke="#08307f" stroke-width="9.2997"/>
 </g>
</svg>
